# Blender 4.1.1
# www.blender.org
mtllib mieszkanie.mtl
o Plane
v -3.350000 0.000000 4.000000
v 4.650000 0.000000 4.000000
v -3.350000 0.000000 -4.000000
v 4.650000 0.000000 -4.000000
v -3.350000 -0.100000 4.000000
v 4.650000 -0.100000 4.000000
v -3.350000 -0.100000 -4.000000
v 4.650000 -0.100000 -4.000000
vn -0.0000 1.0000 -0.0000
vn -0.0000 -1.0000 -0.0000
vn -1.0000 -0.0000 -0.0000
vn -0.0000 -0.0000 1.0000
vn 1.0000 -0.0000 -0.0000
vn -0.0000 -0.0000 -1.0000
vt 0.000000 0.000000
vt 1.000000 0.000000
vt 1.000000 1.000000
vt 0.000000 1.000000
s 0
f 1/1/1 2/2/1 4/3/1 3/4/1
f 5/1/2 7/4/2 8/3/2 6/2/2
f 1/1/3 3/4/3 7/4/3 5/1/3
f 2/2/4 1/1/4 5/1/4 6/2/4
f 4/3/5 2/2/5 6/2/5 8/3/5
f 3/4/6 4/3/6 8/3/6 7/4/6
o Plane.002
v -3.351558 0.000416 4.095379
v 4.648442 0.000416 4.095379
v -3.351558 3.000416 4.095379
v 4.648442 3.000416 4.095379
v -3.351558 0.000416 3.995379
v 4.648442 0.000416 3.995379
v -3.351558 3.000416 3.995379
v 4.648442 3.000416 3.995379
vn -0.0000 -0.0000 1.0000
vn -0.0000 -0.0000 -1.0000
vn -1.0000 -0.0000 -0.0000
vn -0.0000 -1.0000 -0.0000
vn 1.0000 -0.0000 -0.0000
vn -0.0000 1.0000 -0.0000
vt 0.000000 0.000000
vt 1.000000 0.000000
vt 1.000000 1.000000
vt 0.000000 1.000000
s 0
f 9/5/7 10/6/7 12/7/7 11/8/7
f 13/5/8 15/8/8 16/7/8 14/6/8
f 9/5/9 11/8/9 15/8/9 13/5/9
f 10/6/10 9/5/10 13/5/10 14/6/10
f 12/7/11 10/6/11 14/6/11 16/7/11
f 11/8/12 12/7/12 16/7/12 15/8/12
o Plane.003
v 4.748442 0.000416 3.998748
v 4.748441 0.000416 -4.001252
v 4.748442 3.000416 3.998748
v 4.748442 3.000416 -4.001252
v 4.648442 0.000416 3.998748
v 4.648441 0.000416 -4.001252
v 4.648442 3.000416 3.998748
v 4.648442 3.000416 -4.001252
vn 1.0000 -0.0000 -0.0000
vn -1.0000 -0.0000 -0.0000
vn -0.0000 -0.0000 1.0000
vn -0.0000 -1.0000 -0.0000
vn -0.0000 -0.0000 -1.0000
vn -0.0000 1.0000 -0.0000
vt 0.000000 0.000000
vt 1.000000 0.000000
vt 1.000000 1.000000
vt 0.000000 1.000000
s 0
f 17/9/13 18/10/13 20/11/13 19/12/13
f 21/9/14 23/12/14 24/11/14 22/10/14
f 17/9/15 19/12/15 23/12/15 21/9/15
f 18/10/16 17/9/16 21/9/16 22/10/16
f 20/11/17 18/10/17 22/10/17 24/11/17
f 19/12/18 20/11/18 24/11/18 23/12/18
o Plane.004
v -3.351558 0.000416 -3.992176
v 4.648442 0.000416 -3.992176
v -3.351558 3.000416 -3.992176
v 4.648442 3.000416 -3.992176
v -3.351558 0.000416 -4.092176
v 4.648442 0.000416 -4.092176
v -3.351558 3.000416 -4.092175
v 4.648442 3.000416 -4.092175
vn -0.0000 -0.0000 1.0000
vn -0.0000 -0.0000 -1.0000
vn -1.0000 -0.0000 -0.0000
vn -0.0000 -1.0000 -0.0000
vn 1.0000 -0.0000 -0.0000
vn -0.0000 1.0000 -0.0000
vt 0.000000 0.000000
vt 1.000000 0.000000
vt 1.000000 1.000000
vt 0.000000 1.000000
s 0
f 25/13/19 26/14/19 28/15/19 27/16/19
f 29/13/20 31/16/20 32/15/20 30/14/20
f 25/13/21 27/16/21 31/16/21 29/13/21
f 26/14/22 25/13/22 29/13/22 30/14/22
f 28/15/23 26/14/23 30/14/23 32/15/23
f 27/16/24 28/15/24 32/15/24 31/16/24
o Plane.005
v -3.350000 3.095645 4.000000
v 4.650000 3.095645 4.000000
v -3.350000 3.095645 -4.000000
v 4.650000 3.095645 -4.000000
v -3.350000 2.995645 4.000000
v 4.650000 2.995645 4.000000
v -3.350000 2.995645 -4.000000
v 4.650000 2.995645 -4.000000
vn -0.0000 1.0000 -0.0000
vn -0.0000 -1.0000 -0.0000
vn -1.0000 -0.0000 -0.0000
vn -0.0000 -0.0000 1.0000
vn 1.0000 -0.0000 -0.0000
vn -0.0000 -0.0000 -1.0000
vt 0.000000 0.000000
vt 1.000000 0.000000
vt 1.000000 1.000000
vt 0.000000 1.000000
s 0
f 33/17/25 34/18/25 36/19/25 35/20/25
f 37/17/26 39/20/26 40/19/26 38/18/26
f 33/17/27 35/20/27 39/20/27 37/17/27
f 34/18/28 33/17/28 37/17/28 38/18/28
f 36/19/29 34/18/29 38/18/29 40/19/29
f 35/20/30 36/19/30 40/19/30 39/20/30
o Plane.001
v -3.347522 0.000416 3.998748
v -3.347522 0.000416 -4.001252
v -3.347522 3.000416 3.998748
v -3.347522 3.000416 -4.001252
v -3.447522 0.000416 3.998748
v -3.447522 0.000416 -4.001252
v -3.447521 3.000416 3.998748
v -3.447522 3.000416 -4.001252
vn 1.0000 -0.0000 -0.0000
vn -1.0000 -0.0000 -0.0000
vn -0.0000 -0.0000 1.0000
vn -0.0000 -1.0000 -0.0000
vn -0.0000 -0.0000 -1.0000
vn -0.0000 1.0000 -0.0000
vt 0.000000 0.000000
vt 1.000000 0.000000
vt 1.000000 1.000000
vt 0.000000 1.000000
s 0
f 41/21/31 42/22/31 44/23/31 43/24/31
f 45/21/32 47/24/32 48/23/32 46/22/32
f 41/21/33 43/24/33 47/24/33 45/21/33
f 42/22/34 41/21/34 45/21/34 46/22/34
f 44/23/35 42/22/35 46/22/35 48/23/35
f 43/24/36 44/23/36 48/23/36 47/24/36
